<svg xmlns="http://www.w3.org/2000/svg" version="1.1" width="97px" height="157px" style="shape-rendering:geometricPrecision; text-rendering:geometricPrecision; image-rendering:optimizeQuality; fill-rule:evenodd; clip-rule:evenodd" xmlns:xlink="http://www.w3.org/1999/xlink">
<path style="opacity:0.953" fill="#fe6766" d="M 6.5,-0.5 C 9.83333,-0.5 13.1667,-0.5 16.5,-0.5C 17.6883,0.363622 18.8549,1.36362 20,2.5C 27.2516,14.0009 34.2516,25.6676 41,37.5C 42.5078,41.674 44.8412,42.3407 48,39.5C 53.8336,29.1621 60.1669,19.1621 67,9.5C 70.4351,5.55494 74.2685,2.22161 78.5,-0.5C 82.1667,-0.5 85.8333,-0.5 89.5,-0.5C 92.4323,0.799728 94.7656,2.79973 96.5,5.5C 96.5,8.16667 96.5,10.8333 96.5,13.5C 88.7972,29.7279 79.9639,45.3946 70,60.5C 65.8638,66.2327 64.1972,72.566 65,79.5C 72.8005,93.4344 79.8005,107.768 86,122.5C 88.1119,127.835 89.6119,133.335 90.5,139C 90.5242,144.478 87.8575,146.978 82.5,146.5C 79.7466,146.647 77.2466,145.98 75,144.5C 67.3294,129.145 58.6627,114.479 49,100.5C 40.5047,114.818 32.5047,129.485 25,144.5C 22.3508,149.311 18.8508,153.311 14.5,156.5C 11.1667,156.5 7.83333,156.5 4.5,156.5C 2.45654,154.792 0.789873,152.792 -0.5,150.5C -0.5,145.833 -0.5,141.167 -0.5,136.5C 7.04565,115.067 16.5456,94.3999 28,74.5C 28.6667,71.8333 28.6667,69.1667 28,66.5C 19.338,52.1755 12.0047,37.1755 6,21.5C 3.8319,15.3163 3.16523,8.98298 4,2.5C 4.69794,1.30943 5.53128,0.309426 6.5,-0.5 Z"/>
</svg>
